<svg xmlns="http://www.w3.org/2000/svg" version="1.1" xmlns:xlink="http://www.w3.org/1999/xlink" xmlns:svgjs="http://svgjs.dev/svgjs" width="1500" height="242" viewBox="0 0 1500 242"><g transform="matrix(1,0,0,1,-0.9248429028508554,-0.5073660447980615)"><svg viewBox="0 0 396 64" data-background-color="#ffffff" preserveAspectRatio="xMidYMid meet" height="242" width="1500" xmlns="http://www.w3.org/2000/svg" xmlns:xlink="http://www.w3.org/1999/xlink"><g id="tight-bounds" transform="matrix(1,0,0,1,0.2441585263526349,0.44630090383645893)"><svg viewBox="0 0 395.52 63.10739819232704" height="63.10739819232704" width="395.52"><g><svg viewBox="0 0 506.5265142857142 80.81909999999999" height="63.10739819232704" width="395.52"><g><svg viewBox="0 0 506.5265142857142 80.81909999999999" height="80.81909999999999" width="506.5265142857142"><g id="textblocktransform"><svg viewBox="0 0 506.5265142857142 80.81909999999999" height="80.81909999999999" width="506.5265142857142" id="textblock"><g><svg viewBox="0 0 506.5265142857142 80.81909999999999" height="80.81909999999999" width="506.5265142857142"><g><svg><g></g><g></g></svg></g><g><svg><g></g><g><svg></svg></g></svg></g><g id="text-0"><svg viewBox="0 0 506.5265142857142 80.81909999999999" height="80.81909999999999" width="506.5265142857142"><g><svg xmlns="http://www.w3.org/2000/svg" xmlns:xlink="http://www.w3.org/1999/xlink" version="1.1" x="0" y="0" viewBox="7 11 50 42" enable-background="new 0 0 64 64" xml:space="preserve" height="80.81909999999999" width="96.21321428571427" class="icon-dxe-0" data-fill-palette-color="accent" id="dxe-0"><g fill="#f84e45" data-fill-palette-color="accent"><g fill="#f84e45" data-fill-palette-color="accent"><path d="M57 19H7V45H57zM15 41A1 1 0 1 1 13 41V39A1 1 0 1 1 15 39zM15 34A1 1 0 1 1 13 34V32A1 1 0 0 1 15 32zM15 26A1 1 0 0 1 13 26V24A1 1 0 0 1 15 24zM21 41A1 1 0 1 1 19 41V39A1 1 0 1 1 21 39zM21 26A1 1 0 0 1 19 26V24A1 1 0 0 1 21 24zM27 41A1 1 0 1 1 25 41V39A1 1 0 1 1 27 39zM27 34A1 1 0 1 1 25 34V32A1 1 0 0 1 27 32zM27 26A1 1 0 0 1 25 26V24A1 1 0 0 1 27 24zM33 34A1 1 0 1 1 31 34V32A1 1 0 0 1 33 32zM33 26A1 1 0 0 1 31 26V24A1 1 0 0 1 33 24zM39 26A1 1 0 1 1 37 26V24A1 1 0 1 1 39 24zM45 34A1 1 0 1 1 43 34V32A1 1 0 1 1 45 32zM45 26A1 1 0 1 1 43 26V24A1 1 0 1 1 45 24zM51 41A1 1 0 1 1 49 41V39A1 1 0 1 1 51 39zM50 35A1 1 0 0 1 49 34V32A1 1 0 1 1 51 32V34A1 1 0 0 1 50 35" fill="#f84e45" data-fill-palette-color="accent"></path><path d="M57 17V12A1 1 0 0 0 56 11H8A1 1 0 0 0 7 12V17z" fill="#f84e45" data-fill-palette-color="accent"></path><path d="M7 47V52A1 1 0 0 0 8 53H56A1 1 0 0 0 57 52V47z" fill="#f84e45" data-fill-palette-color="accent"></path></g></g></svg></g><g transform="matrix(1,0,0,1,115.29411428571427,0)"><svg width="391.2323999999999" viewBox="2.5 -37.5 241.78 49.95" height="80.81909999999999" data-palette-color="#efe7e7"><path d="M5.75-32.25L2.5-32.25 2.5-35 13.25-35Q24.05-35 24.05-26.55L24.05-26.55Q24.05-23 21.35-18.9L21.35-18.9Q26.1-16.95 26.1-10.35L26.1-10.35Q26.1-4.45 23.13-2.23 20.15 0 14 0L14 0 2.5 0 2.5-2.75 5.75-2.75 5.75-32.25ZM15-17.15L15-17.15 9.15-17.15 9.15-2.75 13.75-2.75Q16.05-2.75 17.5-3 18.95-3.25 20.25-4L20.25-4Q22.7-5.35 22.7-10.15L22.7-10.15Q22.7-13.95 20.78-15.55 18.85-17.15 15-17.15ZM9.15-19.9L15.25-19.9Q17.1-19.9 18.45-19.7L18.45-19.7Q20.65-23.15 20.65-26.25L20.65-26.25Q20.65-32.25 13-32.25L13-32.25 9.15-32.25 9.15-19.9ZM50.8-22.5L48.05-22.5 48.05-25 57.25-25 57.25-22.5 54.25-22.5 44.3 0 42.65 9.95 46.85 9.95 46.85 12.45 36.3 12.45 36.3 9.95 39.4 9.95 40.95 0 40.1 0 32-22.5 28.6-22.5 28.6-25 39.15-25 39.15-22.5 35.7-22.5 42.3-2.35 50.8-22.5ZM71.15-2.45L71.15-2.45 73.09-2.55 73.25-0.55Q73.2-0.55 72.55-0.4L72.55-0.4Q71.05-0.05 69.2-0.05L69.2-0.05Q67.5-0.15 66.09-0.63 64.7-1.1 63.5-2.63 62.3-4.15 62.3-6.55L62.3-6.55 62.3-22.1 59.75-22.1 60.15-24.5 62.35-24.95 62.75-29.75 65.55-30 65.55-25 71.59-25 71.59-22.1 65.55-22.1 65.55-7.4Q65.55-2.45 71.15-2.45ZM78.44-11.2L78.44-11.2Q78.44-6.75 80.99-4.73 83.54-2.7 86.94-2.7L86.94-2.7Q89.14-2.7 91.47-3.13 93.79-3.55 94.54-3.9L94.54-3.9 95.19-1.55Q94.04-0.8 91.42-0.3 88.79 0.2 86.62 0.2 84.44 0.2 82.72-0.25 80.99-0.7 79.19-1.85 77.39-3 76.34-5.45 75.29-7.9 75.29-11.45L75.29-11.45Q75.29-18.05 78.69-21.55L78.69-21.55Q82.24-25.2 86.94-25.2 91.64-25.2 94.12-22.6 96.59-20 96.59-15.3L96.59-15.3Q96.59-14.3 96.44-13.15L96.44-13.15 78.59-13.15Q78.44-12.1 78.44-11.2ZM93.59-15.65L93.59-15.65Q93.59-18.75 91.74-20.43 89.89-22.1 87.44-22.1L87.44-22.1Q84.09-22.1 81.89-20.08 79.69-18.05 78.94-15.1L78.94-15.1 93.59-15.1Q93.59-15.4 93.59-15.65ZM116.49 0L106.44 0 106.44-2.75 109.69-2.75 109.69-32 102.34-32 101.79-27.4 99.34-27.8 99.94-35 122.74-35 123.39-27.8 120.89-27.4 120.29-32 112.84-32 112.84-2.75 116.49-2.75 116.49 0ZM142.69 0L142.19-2.9Q137.64 0.15 133.59 0.15L133.59 0.15Q131.89 0.15 129.59-0.7L129.59-0.7Q128.09-1.25 127.19-2.78 126.29-4.3 126.29-6.6L126.29-6.6 126.29-22.5 122.79-22.5 122.79-25 129.54-25 129.54-7.6Q129.54-5.85 130.29-4.73 131.04-3.6 132.19-3.25L132.19-3.25Q134.09-2.65 135.24-2.75L135.24-2.75Q138.24-2.8 142.19-4.9L142.19-4.9 142.19-22.5 138.69-22.5 138.69-25 145.44-25 145.44-2.5 149.29-2.5 149.29 0 142.69 0ZM154.99-22.5L151.64-22.5 151.64-25 158.24-25 158.24-22.2Q162.34-25 166.09-25.15L166.09-25.15Q169.74-25.15 171.64-23.7L171.64-23.7Q172.49-23.05 173.16-21.68 173.84-20.3 173.84-18.4L173.84-18.4 173.84-2.5 177.69-2.5 177.69 0 167.59 0 167.59-2.5 170.59-2.5 170.59-17.15Q170.59-22 164.89-22L164.89-22Q161.79-21.9 158.24-19.95L158.24-19.95 158.24-2.5 161.99-2.5 161.99 0 151.89 0 151.89-2.5 154.99-2.5 154.99-22.5ZM183.98-22.5L180.63-22.5 180.63-25 187.23-25 187.23-22.2Q191.33-25 195.08-25.15L195.08-25.15Q198.73-25.15 200.63-23.7L200.63-23.7Q201.48-23.05 202.16-21.68 202.83-20.3 202.83-18.4L202.83-18.4 202.83-2.5 206.68-2.5 206.68 0 196.58 0 196.58-2.5 199.58-2.5 199.58-17.15Q199.58-22 193.88-22L193.88-22Q190.78-21.9 187.23-19.95L187.23-19.95 187.23-2.5 190.98-2.5 190.98 0 180.88 0 180.88-2.5 183.98-2.5 183.98-22.5ZM212.03-11.2L212.03-11.2Q212.03-6.75 214.58-4.73 217.13-2.7 220.53-2.7L220.53-2.7Q222.73-2.7 225.06-3.13 227.38-3.55 228.13-3.9L228.13-3.9 228.78-1.55Q227.63-0.8 225.01-0.3 222.38 0.2 220.21 0.2 218.03 0.2 216.31-0.25 214.58-0.7 212.78-1.85 210.98-3 209.93-5.45 208.88-7.9 208.88-11.45L208.88-11.45Q208.88-18.05 212.28-21.55L212.28-21.55Q215.83-25.2 220.53-25.2 225.23-25.2 227.71-22.6 230.18-20 230.18-15.3L230.18-15.3Q230.18-14.3 230.03-13.15L230.03-13.15 212.18-13.15Q212.03-12.1 212.03-11.2ZM227.18-15.65L227.18-15.65Q227.18-18.75 225.33-20.43 223.48-22.1 221.03-22.1L221.03-22.1Q217.68-22.1 215.48-20.08 213.28-18.05 212.53-15.1L212.53-15.1 227.18-15.1Q227.18-15.4 227.18-15.65ZM237.28-35L233.93-35 233.93-37.5 240.53-37.5 240.53-2.5 244.28-2.5 244.28 0 234.18 0 234.18-2.5 237.28-2.5 237.28-35Z" opacity="1" transform="matrix(1,0,0,1,0,0)" fill="#efe7e7" class="wordmark-text-0" data-fill-palette-color="primary"></path></svg></g></svg></g></svg></g></svg></g></svg></g></svg></g><defs></defs></svg><rect width="395.52" height="63.10739819232704" fill="none" stroke="none" visibility="hidden"></rect></g></svg></g></svg>